<?xml version="1.0" encoding="UTF-8" standalone="no"?>
<svg
  version="1.0"
  width="107.69808"
  height="112.74568"
  xmlns="http://www.w3.org/2000/svg"
>
  <g transform="translate(-321.42809,-475.7415)">
    <path
     d="m 338.67975,516.51814 c 0.0653,-1.74255 0.80593,-3.04949 2.22181,-3.92083 1.41583,-0.87125 3.11485,-1.3069 5.09707,-1.30694 0.97655,0.0291 1.76798,0.36309 2.37428,1.00199 0.60624,0.639 0.91846,1.40864 0.93665,2.30893 -0.0436,0.74065 -0.21785,1.30699 -0.52278,1.69903 -0.30499,0.39212 -0.47925,0.87133 -0.52278,1.43764 0.0363,0.9984 0.57358,1.87695 1.6119,2.63567 1.03826,0.75878 2.35972,1.15813 3.9644,1.19803 1.49205,-0.0399 2.64652,-0.56994 3.4634,-1.59012 0.81679,-1.0201 1.23066,-2.29074 1.24159,-3.81191 0.0254,-2.59933 -1.15813,-5.068 -3.55053,-7.40602 -2.39247,-2.33793 -6.1463,-3.58678 -11.26149,-3.74657 -4.46542,0.12712 -8.16842,1.74627 -11.10903,4.85748 -2.94064,3.11129 -4.4654,6.95225 -4.5743,11.52288 0.21728,3.013 1.73828,5.31279 4.56301,6.89937 2.8247,1.58665 5.64942,3.20231 8.47416,4.84699 2.82469,1.64473 4.34569,4.06069 4.56301,7.24789 -0.11984,2.71192 -1.36143,4.78124 -3.72479,6.20798 -2.36342,1.42675 -5.12978,2.14557 -8.2991,2.15646 -1.27791,-0.007 -2.42512,-0.29769 -3.44162,-0.8713 -1.01652,-0.57359 -1.55382,-1.3868 -1.61189,-2.43963 0.15973,-1.1363 0.79868,-2.00033 1.91685,-2.5921 1.11815,-0.59174 1.7571,-1.41221 1.91685,-2.46141 -0.0363,-1.61189 -0.57362,-2.96239 -1.6119,-4.05153 -1.03831,-1.0891 -2.35977,-1.65544 -3.96439,-1.69902 -1.74986,0.0763 -3.08585,0.83864 -4.00796,2.28715 -0.92213,1.44855 -1.38682,3.12579 -1.39408,5.03173 0.0908,3.93536 1.39044,7.21724 3.89905,9.84564 2.5086,2.62841 5.68156,3.99344 9.51891,4.09509 5.99376,-0.14158 10.99645,-2.12378 15.00807,-5.94659 4.01155,-3.82281 6.0954,-8.63671 6.25155,-14.44173 -0.21518,-3.78742 -1.72112,-6.66807 -4.51784,-8.64196 -2.79678,-1.97383 -5.59353,-3.66694 -8.39026,-5.07934 -2.79677,-1.41232 -4.30271,-3.16997 -4.51782,-5.27295 z m 57.85995,0.8713 h 10.28129 c 1.43032,-0.0363 2.62109,-0.53 3.57231,-1.4812 0.95111,-0.95113 1.44484,-2.1419 1.48121,-3.57231 -0.0364,-1.43034 -0.5301,-2.62111 -1.48121,-3.57232 -0.95122,-0.95112 -2.14199,-1.44485 -3.57231,-1.4812 h -7.31888 c 1.17983,-5.24587 2.78446,-10.08882 4.81391,-14.52886 2.02934,-4.43991 5.24587,-6.79967 9.6496,-7.07928 h 1.21981 c 0.9983,-0.0253 1.87685,0.0691 2.63567,0.28318 0.75868,0.21426 1.15803,0.70073 1.19803,1.45942 -0.27597,2.43606 -1.37961,4.05522 -3.31092,4.85747 -1.93144,0.80238 -3.03508,2.37797 -3.31093,4.72678 0.058,2.14925 0.81315,3.94993 2.26537,5.40203 1.4521,1.45222 3.25278,2.20734 5.40204,2.26537 3.04583,-0.14516 5.31846,-1.55376 6.81789,-4.22578 1.49927,-2.67192 2.24714,-5.73597 2.24358,-9.19217 -0.10899,-4.38183 -1.59019,-8.034 -4.44361,-10.95655 -2.85356,-2.92239 -6.42587,-4.4399 -10.71693,-4.55252 -8.09222,0.30141 -15.43288,3.53246 -22.02201,9.69317 -6.5892,6.16086 -11.44667,13.44343 -14.57242,21.84774 h -9.23573 c -1.43039,0.0363 -2.62116,0.53008 -3.57232,1.4812 -0.95117,0.95121 -1.4449,2.14198 -1.4812,3.57232 0.0363,1.43041 0.53003,2.62118 1.4812,3.57231 0.95116,0.9512 2.14193,1.44493 3.57232,1.4812 h 6.44759 l -11.50111,45.83016 c -0.91124,3.92445 -2.35614,7.44593 -4.33469,10.56446 -1.97857,3.11849 -4.77398,4.76669 -8.38622,4.9446 h -1.04556 c -1.08185,0.029 -2.01123,-0.0726 -2.78815,-0.30495 -0.7769,-0.23237 -1.1835,-0.76967 -1.21981,-1.6119 0.27592,-2.34888 1.37956,-3.92448 3.31092,-4.72678 1.93138,-0.80233 3.03502,-2.42149 3.31093,-4.85747 -0.0472,-2.14195 -0.78054,-3.91358 -2.20003,-5.31491 -1.41948,-1.40134 -3.24194,-2.12742 -5.46738,-2.17823 -2.96965,0.13432 -5.2205,1.52113 -6.75254,4.16043 -1.53201,2.63929 -2.30166,5.72513 -2.30893,9.25752 0.10893,4.37461 1.59013,7.99774 4.4436,10.86941 2.85351,2.87162 6.42582,4.36008 10.71695,4.4654 5.74839,-0.22915 11.17409,-2.7914 16.27709,-7.68677 5.10298,-4.89541 9.54766,-10.74922 13.33405,-17.56145 3.78634,-6.81224 6.57879,-13.20819 8.37735,-19.18787 z"
     style="font-style:normal;font-variant:normal;font-weight:normal;font-stretch:normal;font-size:174.261px;font-family:Emmentaler;-inkscape-font-specification:Emmentaler;text-align:center;text-anchor:middle;fill:#2563eb;fill-opacity:1;stroke:none;stroke-width:1px;stroke-linecap:butt;stroke-linejoin:miter;stroke-opacity:1"/>
  </g>
</svg>